<svg width="24" height="24" fill="none" viewBox="0 0 24 24"><path fill="currentColor" d="M18.696 13q.344 0 .6.224.258.225.332.576l.147.7q.295.124.552.262t.527.337l.712-.224a.9.9 0 0 1 .625.025 1 1 0 0 1 .479.4l.196.35q.172.3.123.65a.9.9 0 0 1-.32.575l-.538.474a4.4 4.4 0 0 1 0 1.301l.539.475q.27.225.32.562a.97.97 0 0 1-.124.638l-.22.375a1 1 0 0 1-.466.4.86.86 0 0 1-.614.025l-.711-.225q-.27.2-.528.337-.258.138-.552.263l-.147.724a.96.96 0 0 1-.331.563.92.92 0 0 1-.6.213h-.393a.9.9 0 0 1-.6-.225 1.02 1.02 0 0 1-.332-.575l-.147-.7a7 7 0 0 1-.552-.263 4 4 0 0 1-.527-.337l-.712.225a.9.9 0 0 1-.625-.026 1 1 0 0 1-.479-.4l-.196-.35a1 1 0 0 1-.123-.65.9.9 0 0 1 .32-.574l.538-.475a4.4 4.4 0 0 1 0-1.3l-.539-.475a.88.88 0 0 1-.32-.563.97.97 0 0 1 .124-.637l.22-.375a1 1 0 0 1 .466-.4.86.86 0 0 1 .614-.025l.711.224q.27-.2.528-.337a7 7 0 0 1 .552-.262l.147-.725q.075-.35.331-.562a.92.92 0 0 1 .6-.213zM4.24 2.372a2 2 0 0 1 2.501-1.278l12.862 3.748A2 2 0 0 1 21 6.749V10a1 1 0 0 1-2 0V7H3v3h4a3 3 0 0 1 0 6H3v3h8a1 1 0 1 1 0 2H3a2 2 0 0 1-2-2V7a2 2 0 0 1 2-2h.368zM18.5 16q-.81 0-1.386.588A1.95 1.95 0 0 0 16.537 18q0 .825.577 1.412.577.588 1.386.588.81 0 1.386-.588.576-.587.577-1.412 0-.825-.577-1.412A1.87 1.87 0 0 0 18.5 16M3 14h4a1 1 0 0 0 0-2H3zm2.476-9h6.993l-6.33-1.998z"/></svg>